<svg width="18" height="18" viewBox="0 0 18 18" fill="none" xmlns="http://www.w3.org/2000/svg">
<path d="M5.49026 3.08303C6.87894 1.69434 7.57329 1 8.43611 1C9.29893 1 9.99327 1.69434 11.382 3.08303L14.917 6.61805C16.3057 8.00674 17 8.70108 17 9.5639C17 10.4267 16.3057 11.1211 14.917 12.5097C13.5283 13.8984 12.8339 14.5928 11.9711 14.5928C11.1083 14.5928 10.414 13.8984 9.02528 12.5097L5.49026 8.97473C4.10157 7.58604 3.40723 6.8917 3.40723 6.02888C3.40723 5.16606 4.10157 4.47172 5.49026 3.08303Z" stroke="#1C274C" stroke-width="1.2"/>
<path opacity="0.5" d="M8.4361 11.9208L4.01733 16.3395C3.74337 16.6135 3.60639 16.7505 3.4639 16.8327C3.0772 17.056 2.60077 17.056 2.21408 16.8327C2.07158 16.7505 1.9346 16.6135 1.66065 16.3395C1.38669 16.0656 1.24971 15.9286 1.16744 15.7861C0.944185 15.3994 0.944186 14.923 1.16744 14.5363C1.24971 14.3938 1.38669 14.2568 1.66065 13.9829L6.07942 9.56409" stroke="#1C274C" stroke-width="1.2"/>
<path opacity="0.5" d="M14.3278 6.02871L14.6224 5.73412C14.8963 5.46017 15.0333 5.32319 15.1156 5.18069C15.3388 4.794 15.3388 4.31757 15.1156 3.93088C15.0333 3.78838 14.8963 3.6514 14.6224 3.37745C14.3484 3.10349 14.2114 2.96651 14.0689 2.88424C13.6822 2.66098 13.2058 2.66098 12.8191 2.88424C12.6766 2.96651 12.5396 3.10349 12.2657 3.37745L11.9711 3.67203" stroke="#1C274C" stroke-width="1.2"/>
</svg>
