<svg width="18" height="14" viewBox="0 0 18 14" fill="none" xmlns="http://www.w3.org/2000/svg">
<path d="M7.53197 1.62338L7.9335 1.90754C8.24534 2.12824 8.61797 2.24675 9.00001 2.24675C9.38206 2.24675 9.75469 2.12823 10.0665 1.90753L10.468 1.62338C11.0411 1.2178 11.7259 1 12.428 1H12.9179C13.2413 1 13.5679 1.02039 13.8727 1.12847C15.7788 1.80452 17.09 4.27602 16.9952 9.8821C16.9761 11.0116 16.7118 12.26 15.6926 12.7474C15.375 12.8993 15.0027 13 14.5786 13C14.0698 13 13.6658 12.855 13.3539 12.6506C12.6228 12.1714 12.087 11.3711 11.311 10.9687C10.8438 10.7265 10.3253 10.6 9.79908 10.6H8.20092C7.67468 10.6 7.15615 10.7265 6.689 10.9687C5.91298 11.3711 5.37723 12.1714 4.64611 12.6506C4.33424 12.855 3.93018 13 3.42137 13C2.99733 13 2.62497 12.8993 2.30738 12.7474C1.28824 12.26 1.02394 11.0116 1.00483 9.8821C0.909991 4.27603 2.22116 1.80453 4.12732 1.12848C4.43207 1.02039 4.7587 1 5.08206 1H5.57203C6.27411 1 6.9589 1.2178 7.53197 1.62338Z" stroke="#1C274C" stroke-width="1.2" stroke-linecap="round"/>
<path opacity="0.5" d="M5.4 5V7.4M4.2 6.2L6.6 6.2" stroke="#1C274C" stroke-width="1.2" stroke-linecap="round"/>
<g opacity="0.5">
<path d="M14.6 6.00001C14.6 6.33138 14.3314 6.60001 14 6.60001C13.6686 6.60001 13.4 6.33138 13.4 6.00001C13.4 5.66864 13.6686 5.40001 14 5.40001C14.3314 5.40001 14.6 5.66864 14.6 6.00001Z" fill="#1C274C"/>
<path d="M12.2 6.00001C12.2 6.33138 11.9314 6.60001 11.6 6.60001C11.2686 6.60001 11 6.33138 11 6.00001C11 5.66864 11.2686 5.40001 11.6 5.40001C11.9314 5.40001 12.2 5.66864 12.2 6.00001Z" fill="#1C274C"/>
<path d="M12.8 4.20001C13.1314 4.20001 13.4 4.46864 13.4 4.80001C13.4 5.13138 13.1314 5.40001 12.8 5.40001C12.4686 5.40001 12.2 5.13138 12.2 4.80001C12.2 4.46864 12.4686 4.20001 12.8 4.20001Z" fill="#1C274C"/>
<path d="M12.8 6.60001C13.1314 6.60001 13.4 6.86864 13.4 7.20001C13.4 7.53138 13.1314 7.80001 12.8 7.80001C12.4686 7.80001 12.2 7.53138 12.2 7.20001C12.2 6.86864 12.4686 6.60001 12.8 6.60001Z" fill="#1C274C"/>
</g>
</svg>
