<?xml version="1.0" standalone="no"?>
<!DOCTYPE svg PUBLIC "-//W3C//DTD SVG 20010904//EN"
 "http://www.w3.org/TR/2001/REC-SVG-20010904/DTD/svg10.dtd">
<svg version="1.0" xmlns="http://www.w3.org/2000/svg"
 width="500.000000pt" height="500.000000pt" viewBox="0 0 500.000000 500.000000"
 preserveAspectRatio="xMidYMid meet">
<metadata>
Created by potrace 1.16, written by Peter Selinger 2001-2019
</metadata>
<g transform="translate(0.000000,500.000000) scale(0.100000,-0.100000)"
fill="#000000" stroke="none">
<path d="M2258 3094 c-70 -21 -151 -100 -192 -188 -36 -76 -48 -124 -67 -278
l-12 -98 -188 0 c-181 0 -189 -1 -209 -22 -28 -30 -28 -117 -1 -142 17 -16 19
-29 15 -113 -2 -52 -6 -99 -9 -104 -8 -12 27 -25 90 -33 28 -4 261 -2 519 4
382 9 471 8 478 -2 4 -7 18 -45 29 -85 12 -40 29 -75 37 -78 8 -3 67 20 130
50 77 37 118 52 122 44 4 -6 12 -34 19 -63 l12 -53 53 17 c29 10 78 30 110 44
31 14 58 26 60 26 2 0 24 9 48 20 l45 20 -23 120 c-25 133 -25 155 -1 190 24
34 22 101 -4 134 l-20 26 -174 0 -173 0 -12 73 c-45 277 -116 439 -213 486
-55 27 -131 27 -198 1 -51 -19 -52 -19 -90 0 -45 24 -113 25 -181 4z m152 -79
c0 -2 -11 -20 -25 -40 -52 -77 -73 -165 -90 -367 l-7 -78 -65 0 -66 0 6 98
c15 240 96 392 208 392 22 0 39 -2 39 -5z m320 -31 c60 -54 86 -146 115 -396
l6 -58 -108 0 -109 0 -3 53 c-4 83 -38 270 -61 328 l-20 54 30 28 c45 41 98
38 150 -9z m-216 -166 c7 -44 25 -239 26 -270 0 -14 -9 -18 -42 -18 l-41 0 6
99 c7 115 26 231 37 231 4 0 11 -19 14 -42z"/>
<path d="M1170 987 c0 -7 5 -18 11 -24 6 -6 19 -70 29 -143 27 -196 48 -205
147 -59 l62 91 5 -33 c3 -19 8 -58 13 -88 8 -56 27 -79 56 -68 8 3 48 60 87
126 65 109 74 119 92 110 24 -13 63 9 71 40 7 30 -19 61 -53 61 -36 0 -51 -15
-98 -97 l-37 -65 -6 54 c-3 29 -2 61 3 70 17 34 9 38 -77 38 -67 0 -85 -3 -85
-14 0 -8 5 -18 10 -21 6 -3 10 -13 10 -22 0 -24 -61 -116 -71 -106 -10 11 -13
112 -4 141 7 22 6 22 -79 22 -64 0 -86 -3 -86 -13z"/>
<path d="M2533 968 c5 -41 -53 -251 -78 -278 -16 -17 -16 -20 -2 -25 8 -4 30
-5 49 -3 30 3 33 5 30 34 -3 29 24 144 33 144 3 0 16 -38 30 -85 14 -46 30
-87 36 -90 20 -13 47 8 113 90 38 47 70 84 72 82 9 -8 -30 -125 -48 -144 -28
-30 -14 -35 83 -31 l74 3 -3 31 c-4 38 52 240 72 263 30 33 19 41 -49 41 l-65
0 -76 -92 c-42 -51 -80 -94 -84 -96 -3 -1 -17 35 -30 80 -13 46 -27 89 -33 96
-6 7 -33 12 -69 12 l-60 0 5 -32z"/>
<path d="M3830 983 c-8 -3 -30 -19 -48 -34 -18 -16 -44 -29 -57 -29 -29 0 -32
-16 -9 -41 14 -16 14 -23 -5 -87 -12 -38 -21 -76 -21 -84 0 -47 97 -65 158
-28 38 24 41 40 7 40 -30 0 -32 16 -8 100 13 49 20 60 38 60 21 0 45 17 45 32
0 4 -12 8 -26 8 -21 0 -24 3 -19 20 11 36 -17 57 -55 43z"/>
<path d="M1790 923 c-31 -12 -40 -24 -29 -42 14 -21 -34 -186 -57 -195 -35
-13 2 -26 75 -26 82 0 98 5 80 26 -7 9 -3 35 15 94 30 94 33 135 10 144 -19 7
-73 7 -94 -1z"/>
<path d="M1991 920 c-19 -8 -22 -15 -17 -36 8 -29 -39 -194 -54 -194 -6 0 -10
-7 -10 -15 0 -13 14 -15 83 -13 67 2 81 6 78 18 -7 27 -2 57 20 114 15 42 25
56 40 56 22 0 21 -10 -7 -79 -30 -74 -10 -111 62 -111 31 0 50 6 64 20 24 24
27 52 5 44 -18 -7 -19 -12 5 64 25 80 25 93 0 120 -28 30 -81 29 -117 -2 l-27
-24 -11 22 c-12 24 -73 32 -114 16z"/>
<path d="M3105 918 c-22 -12 -45 -37 -45 -50 0 -4 11 -15 24 -23 34 -23 74
-10 83 26 6 21 12 26 22 20 10 -6 12 -19 7 -44 l-6 -35 -69 2 c-61 1 -73 -2
-95 -23 -18 -17 -26 -35 -26 -58 0 -64 64 -92 131 -57 28 14 32 14 48 0 24
-22 73 -20 105 5 29 23 36 52 9 42 -12 -5 -15 -2 -11 8 40 106 32 160 -27 185
-40 16 -121 18 -150 2z"/>
<path d="M3421 919 c-19 -7 -22 -14 -17 -35 8 -29 -39 -194 -54 -194 -6 0 -10
-7 -10 -15 0 -12 16 -15 83 -15 91 0 105 5 83 29 -12 14 -11 26 10 94 14 42
29 77 33 77 5 0 16 -12 25 -26 23 -34 64 -30 86 9 13 24 13 30 0 55 -19 32
-60 41 -95 18 -20 -13 -25 -13 -35 -1 -14 17 -72 19 -109 4z"/>
</g>
</svg>
